<svg xmlns="http://www.w3.org/2000/svg" width="194.269" height="36.132" viewBox="0 0 194.269 36.132"><g fill="#FFF"><path d="M65.146 3.737v25.205a3.487 3.487 0 0 1-3.477 3.477c-1.96 0-3.53-1.57-3.53-3.48v-12.3l-6.3 12.9c-.57 1.13-1.65 1.74-2.74 1.74-1.13 0-2.22-.65-2.74-1.74l-6.34-12.9v12.3c0 1.91-1.57 3.472-3.52 3.472-1.87 0-3.44-1.563-3.44-3.476V3.74c0-1.915 1.565-3.48 3.433-3.48 1.825 0 2.87 1.26 3.607 2.694.26.522 5.607 11.516 8.997 18.426 3.35-6.91 8.74-17.86 9-18.426C58.8 1.52 59.84.26 61.667.26a3.489 3.489 0 0 1 3.48 3.477zm35.727 12.603c0 9.04-7.3 16.34-16.34 16.34-8.995 0-16.34-7.3-16.34-16.34S75.538 0 84.533 0c9.04 0 16.34 7.3 16.34 16.34zm-25.727 0c0 5.215 4.13 9.43 9.344 9.43 5.128 0 9.43-4.302 9.43-9.43s-4.302-9.43-9.43-9.43c-5.215 0-9.344 4.215-9.344 9.43zM129.56 3.694v25.25c0 3.17-3.868 4.52-6.084 2.39-.435-.436-.826-1.088-1.174-1.61-.52-.825-10.604-15.513-11.212-16.382v15.6c0 1.913-1.564 3.478-3.477 3.478s-3.477-1.564-3.477-3.477V3.693c0-1.868 1.564-3.432 3.477-3.432 1.174 0 2.043.57 2.78 1.48.74.96 8.084 11.65 12.256 17.73V3.7c0-1.87 1.52-3.433 3.43-3.433 1.91 0 3.47 1.566 3.47 3.435zm30.6 28.42c-1.435.74-3.65.26-4.564-1.78l-1.52-3.434h-13.3l-1.563 3.433c-.913 2-3.042 2.434-4.563 1.782-1.738-.74-2.52-2.825-1.738-4.563L144.167 2.39c.348-.826 1.043-1.477 1.825-1.825a3.95 3.95 0 0 1 2.824 0c.826.348 1.435 1 1.825 1.825l11.26 25.162c.79 1.738-.04 3.694-1.73 4.563zm-9.214-12.124l-3.52-7.91-3.52 7.91h7.04zm43.314-2.955c-.173 4.215-1.824 8.126-4.736 10.995-2.955 3-6.953 4.65-11.168 4.65-4.39 0-8.43-1.695-11.43-4.824-2.955-3.085-4.562-7.17-4.562-11.516 0-8.996 7.3-16.34 16.34-16.34 2.738 0 5.432.695 7.822 1.956 1.695.956 2.303 3.042 1.39 4.737a3.452 3.452 0 0 1-4.692 1.39c-1.39-.738-2.955-1.172-4.52-1.172-5.172 0-9.387 4.26-9.387 9.43 0 2.57.912 4.96 2.607 6.7 1.65 1.74 3.955 2.74 6.432 2.74 3.998 0 7.3-2.6 8.475-6.3h-7.95c-1.65 0-3.04-1.34-3.04-3.04 0-1.65 1.39-3.04 3.04-3.04h12.08c1.91.04 3.44 1.7 3.31 3.65zM29.29 27.552L18.033 2.39c-.392-.826-1-1.477-1.825-1.825a3.955 3.955 0 0 0-2.826 0c-.782.348-1.477 1-1.825 1.825L.303 27.552c-.782 1.738 0 3.824 1.738 4.563 1.52.652 3.65.217 4.57-1.782l8.21-18.253 8.22 18.336c.94 1.97 3.11 2.43 4.52 1.702 1.7-.87 2.52-2.825 1.74-4.563z"/><path d="M14.71 22.22a3.44 3.44 0 0 0-3.435 3.432v7.317-.28c0 1.87 1.564 3.43 3.477 3.43s3.434-1.57 3.434-3.44v.537-7.583c0-1.865-1.565-3.43-3.477-3.43z"/></g></svg>